<svg width="872" height="90" viewBox="0 0 872 90" fill="none" xmlns="http://www.w3.org/2000/svg">
<path opacity="0.5" d="M28.3948 87.8438H0.000100717V4.05065H28.9676C37.2869 4.05065 44.4334 5.72815 50.4069 9.08314C56.4077 12.4109 61.0174 17.1979 64.236 23.4442C67.4546 29.6905 69.064 37.1642 69.064 45.8654C69.064 54.5938 67.441 62.0948 64.1951 68.3684C60.9765 74.642 56.3259 79.4563 50.2432 82.8113C44.1879 86.1663 36.9051 87.8438 28.3948 87.8438ZM15.1794 74.7102H27.6584C33.4955 74.7102 38.3644 73.6464 42.2649 71.5188C46.1654 69.364 49.0976 66.159 51.0615 61.9039C53.0254 57.6215 54.0074 52.2753 54.0074 45.8654C54.0074 39.4554 53.0254 34.1365 51.0615 29.9087C49.0976 25.6536 46.1927 22.4759 42.3467 20.3756C38.528 18.248 33.7819 17.1842 28.1084 17.1842H15.1794V74.7102ZM129.72 89.1121C125.737 89.1121 122.151 88.4029 118.959 86.9845C115.795 85.5389 113.286 83.4113 111.431 80.6019C109.603 77.7924 108.69 74.3283 108.69 70.2096C108.69 66.6636 109.344 63.7314 110.654 61.4129C111.963 59.0944 113.75 57.2396 116.013 55.8485C118.277 54.4574 120.828 53.4073 123.664 52.6981C126.529 51.9616 129.488 51.4298 132.543 51.1024C136.225 50.7206 139.212 50.3796 141.503 50.0796C143.794 49.7523 145.458 49.2613 146.495 48.6066C147.559 47.9247 148.091 46.8746 148.091 45.4562V45.2107C148.091 42.1285 147.177 39.7418 145.349 38.0507C143.522 36.3595 140.89 35.514 137.453 35.514C133.825 35.514 130.947 36.305 128.82 37.887C126.719 39.4691 125.301 41.3375 124.565 43.4923L110.735 41.5284C111.827 37.7097 113.627 34.5184 116.136 31.9544C118.646 29.3631 121.714 27.4265 125.342 26.1445C128.97 24.8353 132.979 24.1806 137.371 24.1806C140.399 24.1806 143.413 24.5352 146.413 25.2444C149.413 25.9536 152.155 27.1265 154.637 28.7631C157.119 30.3724 159.11 32.5681 160.61 35.3503C162.138 38.1325 162.902 41.6102 162.902 45.7835V87.8438H148.663V79.2108H148.172C147.272 80.9565 146.004 82.593 144.367 84.1205C142.758 85.6207 140.726 86.8345 138.271 87.7619C135.843 88.662 132.993 89.1121 129.72 89.1121ZM133.566 78.2288C136.539 78.2288 139.117 77.6424 141.299 76.4695C143.481 75.2693 145.158 73.6873 146.331 71.7234C147.531 69.7595 148.131 67.6183 148.131 65.2998V57.8943C147.668 58.2761 146.877 58.6307 145.758 58.958C144.667 59.2854 143.44 59.5718 142.076 59.8172C140.712 60.0627 139.362 60.2809 138.026 60.4719C136.689 60.6628 135.53 60.8265 134.548 60.9629C132.338 61.2629 130.361 61.7539 128.615 62.4358C126.869 63.1177 125.492 64.0724 124.483 65.2998C123.474 66.5 122.969 68.0547 122.969 69.9641C122.969 72.6917 123.965 74.7511 125.956 76.1422C127.947 77.5333 130.484 78.2288 133.566 78.2288ZM206.598 87.8438V24.9989H220.959V35.4731H221.614C222.76 31.8453 224.724 29.0495 227.506 27.0856C230.315 25.0944 233.52 24.0988 237.121 24.0988C237.939 24.0988 238.853 24.1397 239.862 24.2215C240.898 24.2761 241.758 24.3716 242.44 24.5079V38.1325C241.812 37.9143 240.817 37.7234 239.453 37.5597C238.116 37.3688 236.821 37.2733 235.566 37.2733C232.866 37.2733 230.438 37.8597 228.283 39.0326C226.156 40.1782 224.478 41.7739 223.251 43.8196C222.023 45.8654 221.409 48.2248 221.409 50.8979V87.8438H206.598ZM294.585 68.1229L294.544 50.2432H296.917L319.502 24.9989H336.809L309.028 55.9304H305.959L294.585 68.1229ZM281.083 87.8438V4.05065H295.894V87.8438H281.083ZM320.525 87.8438L300.068 59.2444L310.051 48.8112L338.241 87.8438H320.525ZM400.718 89.0712C394.417 89.0712 388.975 87.7619 384.393 85.1434C379.838 82.4976 376.333 78.7607 373.878 73.9328C371.423 69.0776 370.195 63.3632 370.195 56.7896C370.195 50.3251 371.423 44.6516 373.878 39.7691C376.36 34.8593 379.824 31.0406 384.27 28.313C388.716 25.5581 393.94 24.1806 399.94 24.1806C403.814 24.1806 407.469 24.808 410.905 26.0627C414.37 27.2901 417.424 29.1995 420.07 31.7907C422.743 34.382 424.844 37.6824 426.371 41.6921C427.899 45.6744 428.662 50.4205 428.662 55.9304V60.4719H377.151V50.4887H414.465C414.438 47.652 413.824 45.1289 412.624 42.9195C411.424 40.6829 409.746 38.9235 407.591 37.6415C405.464 36.3595 402.982 35.7185 400.145 35.7185C397.117 35.7185 394.458 36.455 392.167 37.9279C389.875 39.3736 388.089 41.2829 386.807 43.656C385.552 46.0017 384.911 48.5794 384.884 51.3888V60.1037C384.884 63.7587 385.552 66.8955 386.889 69.514C388.225 72.1053 390.094 74.0964 392.494 75.4875C394.894 76.8514 397.704 77.5333 400.922 77.5333C403.077 77.5333 405.027 77.2332 406.773 76.6331C408.519 76.0058 410.033 75.092 411.315 73.8919C412.597 72.6917 413.565 71.2051 414.22 69.4322L428.049 70.9869C427.176 74.642 425.512 77.8333 423.057 80.561C420.629 83.2613 417.52 85.3616 413.729 86.8618C409.937 88.3347 405.6 89.0712 400.718 89.0712ZM469.996 87.8438V24.9989H484.357V35.4731H485.012C486.158 31.8453 488.122 29.0495 490.904 27.0856C493.713 25.0944 496.918 24.0988 500.519 24.0988C501.337 24.0988 502.251 24.1397 503.26 24.2215C504.296 24.2761 505.156 24.3716 505.838 24.5079V38.1325C505.21 37.9143 504.215 37.7234 502.851 37.5597C501.514 37.3688 500.219 37.2733 498.964 37.2733C496.264 37.2733 493.836 37.8597 491.681 39.0326C489.554 40.1782 487.876 41.7739 486.649 43.8196C485.421 45.8654 484.807 48.2248 484.807 50.8979V87.8438H469.996ZM559.292 51.0206V87.8438H544.481V4.05065H558.965V35.6776H559.702C561.175 32.1317 563.452 29.3359 566.534 27.2901C569.644 25.2171 573.599 24.1806 578.4 24.1806C582.764 24.1806 586.569 25.0944 589.815 26.9219C593.061 28.7494 595.57 31.4225 597.343 34.9412C599.143 38.4598 600.043 42.7559 600.043 47.8293V87.8438H585.232V50.1205C585.232 45.8926 584.141 42.6058 581.959 40.2601C579.804 37.887 576.777 36.7005 572.876 36.7005C570.258 36.7005 567.912 37.2733 565.839 38.4189C563.793 39.5372 562.184 41.1602 561.011 43.2878C559.865 45.4153 559.292 47.9929 559.292 51.0206ZM643.945 87.8438V24.9989H658.756V87.8438H643.945ZM651.391 16.0795C649.045 16.0795 647.027 15.3022 645.336 13.7474C643.645 12.1654 642.799 10.2697 642.799 8.06028C642.799 5.82361 643.645 3.9279 645.336 2.37314C647.027 0.791115 649.045 0.000100131 651.391 0.000100131C653.764 0.000100131 655.783 0.791115 657.447 2.37314C659.138 3.9279 659.983 5.82361 659.983 8.06028C659.983 10.2697 659.138 12.1654 657.447 13.7474C655.783 15.3022 653.764 16.0795 651.391 16.0795ZM717.601 4.05065V87.8438H702.79V4.05065H717.601ZM776.447 4.05065V87.8438H761.636V4.05065H776.447ZM870.151 41.6103L856.65 43.0832C856.268 41.7194 855.599 40.4374 854.645 39.2372C853.717 38.037 852.463 37.0687 850.881 36.3323C849.299 35.5958 847.362 35.2276 845.071 35.2276C841.988 35.2276 839.397 35.8958 837.297 37.2324C835.224 38.5689 834.201 40.301 834.228 42.4285C834.201 44.2561 834.869 45.7426 836.233 46.8882C837.624 48.0338 839.915 48.9749 843.107 49.7113L853.826 52.0026C859.773 53.2845 864.191 55.3166 867.083 58.0988C870.001 60.881 871.474 64.5224 871.502 69.023C871.474 72.9781 870.315 76.4695 868.024 79.4972C865.76 82.4976 862.609 84.8433 858.573 86.5345C854.536 88.2256 849.899 89.0712 844.662 89.0712C836.97 89.0712 830.778 87.4619 826.086 84.2433C821.395 80.9974 818.599 76.4831 817.699 70.7005L832.142 69.3094C832.796 72.1462 834.187 74.2874 836.315 75.733C838.443 77.1787 841.211 77.9015 844.621 77.9015C848.139 77.9015 850.962 77.1787 853.09 75.733C855.245 74.2874 856.322 72.5008 856.322 70.3732C856.322 68.573 855.627 67.0864 854.236 65.9135C852.872 64.7406 850.744 63.8405 847.853 63.2132L837.133 60.9629C831.105 59.7081 826.645 57.5942 823.754 54.6211C820.863 51.6207 819.431 47.8293 819.458 43.2468C819.431 39.3736 820.481 36.0186 822.609 33.1818C824.763 30.3178 827.75 28.1084 831.569 26.5537C835.415 24.9716 839.847 24.1806 844.866 24.1806C852.231 24.1806 858.027 25.749 862.255 28.8858C866.51 32.0226 869.142 36.2641 870.151 41.6103Z" fill="white" fill-opacity="0.3"/>
</svg>
