<svg width="1280" height="163" viewBox="0 0 1280 163" fill="none" xmlns="http://www.w3.org/2000/svg">
<path d="M51.9082 151.48H0V0H54.2079C70.525 0 84.4877 3.03255 96.0958 9.09766C107.704 15.1134 116.602 23.7673 122.789 35.0592C128.976 46.3019 132.07 59.7634 132.07 75.4439C132.07 91.223 128.949 104.808 122.707 116.198C116.465 127.54 107.375 136.268 95.4388 142.382C83.5021 148.447 68.9919 151.48 51.9082 151.48ZM20.369 135.207H50.594C64.5019 135.207 76.0279 132.791 85.1721 127.959C94.3163 123.126 101.133 116.248 105.623 107.323C110.113 98.3976 112.358 87.7714 112.358 75.4439C112.358 63.2151 110.141 52.6875 105.705 43.861C101.27 34.9853 94.6448 28.1805 85.8292 23.4468C77.0135 18.6637 66.0351 16.2722 52.8938 16.2722H20.369V135.207Z" fill="#FFF9EB" fill-opacity="0.05"/>
<path d="M226.779 151.48C218.785 151.48 211.53 150.124 205.014 147.412C198.498 144.65 193.324 140.681 189.491 135.503C185.658 130.276 183.742 123.965 183.742 116.568C183.742 110.059 185.165 104.783 188.013 100.74C190.86 96.6471 194.665 93.442 199.429 91.1244C204.193 88.8069 209.449 87.081 215.199 85.9469C221.003 84.7635 226.834 83.8266 232.693 83.1363C240.359 82.2487 246.574 81.583 251.337 81.1392C256.156 80.6461 259.66 79.8325 261.85 78.6984C264.095 77.5642 265.218 75.5919 265.218 72.7812V72.1895C265.218 64.8916 263 59.221 258.565 55.1776C254.185 51.1342 247.532 49.1125 238.607 49.1125C229.353 49.1125 222.098 50.937 216.841 54.5859C211.585 58.2348 207.889 62.1303 205.753 66.2723L187.356 60.3551C190.641 53.4518 195.021 48.077 200.497 44.2309C206.027 40.3354 212.05 37.6233 218.566 36.0947C225.137 34.5168 231.598 33.7279 237.95 33.7279C242.001 33.7279 246.656 34.1717 251.912 35.0592C257.224 35.8975 262.343 37.648 267.271 40.3107C272.254 42.9735 276.388 46.9922 279.673 52.367C282.959 57.7417 284.601 64.9409 284.601 73.9646V148.817H265.218V133.432H264.232C262.918 135.898 260.728 138.536 257.662 141.346C254.595 144.157 250.516 146.549 245.424 148.521C240.331 150.493 234.117 151.48 226.779 151.48ZM229.736 135.799C237.402 135.799 243.863 134.443 249.12 131.731C254.431 129.019 258.428 125.518 261.111 121.228C263.849 116.938 265.218 112.426 265.218 107.693V91.7161C264.396 92.6037 262.59 93.4173 259.797 94.157C257.059 94.8473 253.883 95.4637 250.27 96.0061C246.71 96.4992 243.233 96.943 239.839 97.3375C236.499 97.6826 233.788 97.9785 231.707 98.225C226.67 98.8167 221.961 99.7783 217.581 101.11C213.255 102.392 209.751 104.339 207.068 106.953C204.439 109.517 203.125 113.018 203.125 117.456C203.125 123.521 205.617 128.107 210.599 131.213C215.637 134.27 222.016 135.799 229.736 135.799Z" fill="#FFF9EB" fill-opacity="0.05"/>
<path d="M331.735 148.521V34.9113H350.461V52.0711H351.775C354.075 46.4498 358.237 41.8886 364.26 38.3876C370.283 34.8866 377.073 33.1361 384.629 33.1361C386.052 33.1361 387.832 33.1608 389.967 33.2101C392.103 33.2594 393.718 33.3334 394.813 33.432V51.1835C394.156 51.0356 392.65 50.8137 390.296 50.5178C387.996 50.1727 385.56 50.0001 382.986 50.0001C376.853 50.0001 371.378 51.1589 366.559 53.4764C361.796 55.7447 358.018 58.9005 355.225 62.9439C352.487 66.938 351.118 71.4991 351.118 76.6273V148.521H331.735Z" fill="#FFF9EB" fill-opacity="0.05"/>
<path d="M445.612 112.426L445.283 90.8286H449.226L504.419 40.2367H528.402L469.595 93.7871H467.952L445.612 112.426ZM427.543 153.846V2.36686H446.926V153.846H427.543ZM507.704 153.846L458.425 97.6333L472.223 85.5031L532.344 153.846H507.704Z" fill="#FFF9EB" fill-opacity="0.05"/>
<path d="M604.95 157.693C592.794 157.693 582.309 155.276 573.493 150.444C564.732 145.562 557.97 138.758 553.206 130.03C548.497 121.253 546.143 111.046 546.143 99.4084C546.143 87.7713 548.497 77.5149 553.206 68.6392C557.97 59.7141 564.595 52.7614 573.082 47.7811C581.624 42.7515 591.59 40.2367 602.979 40.2367C609.55 40.2367 616.038 41.2229 622.444 43.1953C628.851 45.1677 634.682 48.3729 639.939 52.8107C645.195 57.1993 649.384 63.0179 652.505 70.2664C655.626 77.5149 657.187 86.44 657.187 97.0416V104.438H559.941V89.3493H637.475C637.475 82.939 636.051 77.219 633.204 72.1895C630.411 67.1599 626.414 63.1904 621.212 60.2812C616.065 57.3719 609.988 55.9172 602.979 55.9172C595.258 55.9172 588.578 57.6431 582.938 61.0948C577.353 64.4971 573.055 68.935 570.044 74.4084C567.032 79.8818 565.526 85.7496 565.526 92.012V102.071C565.526 110.651 567.169 117.924 570.454 123.891C573.794 129.808 578.421 134.32 584.335 137.426C590.248 140.483 597.12 142.012 604.95 142.012C610.042 142.012 614.642 141.371 618.748 140.089C622.91 138.758 626.496 136.785 629.508 134.172C632.519 131.509 634.846 128.205 636.489 124.261L655.216 128.994C653.244 134.714 649.932 139.744 645.277 144.083C640.623 148.373 634.874 151.726 628.029 154.142C621.185 156.509 613.492 157.693 604.95 157.693Z" fill="#FFF9EB" fill-opacity="0.05"/>
<path d="M696.892 159.616V46.006H715.619V63.1658H716.933C719.233 57.5445 723.394 52.9833 729.417 49.4823C735.44 45.9813 742.23 44.2309 749.786 44.2309C751.21 44.2309 752.989 44.2555 755.125 44.3048C757.26 44.3541 758.876 44.4281 759.971 44.5267V62.2782C759.314 62.1303 757.808 61.9084 755.453 61.6125C753.154 61.2674 750.717 61.0948 748.143 61.0948C742.011 61.0948 736.535 62.2536 731.717 64.5711C726.953 66.8394 723.175 69.9952 720.382 74.0386C717.645 78.0327 716.276 82.5938 716.276 87.7221V159.616H696.892Z" fill="#FFF9EB" fill-opacity="0.05"/>
<path d="M834.829 93.7133V162.057H815.446V10.577H834.829V66.1984H836.472C839.429 60.3306 843.864 55.6708 849.778 52.2191C855.746 48.7181 863.685 46.9676 873.596 46.9676C882.193 46.9676 889.722 48.5209 896.183 51.6274C902.644 54.6846 907.654 59.3937 911.213 65.7547C914.827 72.0663 916.634 80.1038 916.634 89.8671V125.962V162.057H897.251V91.0506C897.251 82.0269 894.65 75.0495 889.448 70.1186C884.301 65.1383 877.155 62.6481 868.011 62.6481C861.659 62.6481 855.965 63.8562 850.927 66.2724C845.945 68.6886 842.002 72.2142 839.1 76.8493C836.253 81.4845 834.829 87.1058 834.829 93.7133Z" fill="#FFF9EB" fill-opacity="0.05"/>
<path d="M970.867 163.314V49.7043H990.25V163.314H970.867ZM980.723 30.7694C976.945 30.7694 973.687 29.6106 970.949 27.293C968.266 24.9755 966.924 22.1895 966.924 18.9351C966.924 15.6806 968.266 12.8946 970.949 10.577C973.687 8.25949 976.945 7.10071 980.723 7.10071C984.501 7.10071 987.731 8.25949 990.414 10.577C993.152 12.8946 994.521 15.6806 994.521 18.9351C994.521 22.1895 993.152 24.9755 990.414 27.293C987.731 29.6106 984.501 30.7694 980.723 30.7694Z" fill="#FFF9EB" fill-opacity="0.05"/>
<path d="M1077.29 11.8344V163.314H1057.91V11.8344H1077.29Z" fill="#FFF9EB" fill-opacity="0.05"/>
<path d="M1151.79 11.8344V163.314H1132.41V11.8344H1151.79Z" fill="#FFF9EB" fill-opacity="0.05"/>
<path d="M1277.7 72.7813L1260.29 77.2192C1259.19 74.6057 1257.58 72.0663 1255.44 69.6008C1253.36 67.086 1250.51 65.015 1246.9 63.3878C1243.29 61.7606 1238.66 60.9469 1233.02 60.9469C1225.3 60.9469 1218.87 62.5495 1213.72 65.7546C1208.63 68.9105 1206.08 72.9292 1206.08 77.8109C1206.08 82.1501 1207.83 85.5772 1211.34 88.092C1214.84 90.6068 1220.32 92.7024 1227.76 94.379L1246.49 98.521C1257.77 100.986 1266.17 104.759 1271.7 109.838C1277.23 114.867 1280 121.351 1280 129.29C1280 135.799 1277.92 141.618 1273.76 146.746C1269.65 151.874 1263.9 155.918 1256.51 158.876C1249.12 161.835 1240.52 163.314 1230.72 163.314C1217.85 163.314 1207.2 160.799 1198.77 155.77C1190.34 150.74 1185 143.393 1182.75 133.728L1201.15 129.586C1202.9 135.701 1206.22 140.286 1211.09 143.344C1216.02 146.401 1222.45 147.929 1230.39 147.929C1239.43 147.929 1246.6 146.204 1251.91 142.752C1257.28 139.251 1259.96 135.06 1259.96 130.178C1259.96 126.233 1258.43 122.929 1255.36 120.267C1252.29 117.555 1247.58 115.533 1241.23 114.201L1220.21 109.764C1208.65 107.298 1200.17 103.477 1194.75 98.2991C1189.38 93.0723 1186.7 86.5387 1186.7 78.6985C1186.7 72.2882 1188.7 66.6176 1192.69 61.6866C1196.74 56.7556 1202.25 52.8848 1209.2 50.0741C1216.21 47.2635 1224.15 45.8582 1233.02 45.8582C1245.5 45.8582 1255.31 48.3236 1262.42 53.2546C1269.6 58.1856 1274.69 64.6945 1277.7 72.7813Z" fill="#FFF9EB" fill-opacity="0.05"/>
</svg>
