<svg width="109" height="20" viewBox="0 0 109 20" fill="none" xmlns="http://www.w3.org/2000/svg">
<g clip-path="url(#clip0_44_669)">
<path d="M8.12707 10.7598L10.2471 12.1316C9.26354 14.114 7.65531 15.1045 5.42471 15.1045C3.87177 15.1045 2.57765 14.6057 1.53765 13.6081C0.512942 12.5963 0 11.2798 0 9.65866C0 8.0516 0.52706 6.74101 1.58 5.73042C2.63295 4.71865 3.91412 4.21277 5.42471 4.21277C6.5753 4.21277 7.55883 4.46218 8.37648 4.961C9.17954 5.42958 9.80155 6.15478 10.1424 7.01983L8.00119 8.4316C7.46119 7.25513 6.5953 6.66571 5.40354 6.66571C4.6153 6.66571 3.95648 6.94336 3.42942 7.49748C2.91647 8.03748 2.66 8.75748 2.66 9.65866C2.66 10.5728 2.91647 11.301 3.42942 11.841C3.94236 12.3822 4.60001 12.6528 5.40354 12.6528C6.06942 12.6528 6.60942 12.4998 7.02472 12.194C7.45531 11.8763 7.82236 11.3975 8.12707 10.7598ZM11.7765 18.9704L12.1918 16.5387C12.4965 16.7046 12.8083 16.7881 13.1271 16.7881C13.6683 16.7881 14.0553 16.4622 14.2918 15.8116L14.6236 14.8963L10.3835 4.50571H13.3553L16.0165 11.1975L18.5518 4.50571H21.5236L16.6177 16.6846C16.2588 17.5857 15.8012 18.2304 15.2471 18.6187C14.7059 19.0069 14.0271 19.1999 13.2094 19.1999C12.7217 19.2086 12.2362 19.1313 11.7753 18.9716L11.7765 18.9704ZM22.3118 14.8128V0.264526H24.9306V5.77159C25.7483 4.73277 26.8777 4.21277 28.3189 4.21277C29.7306 4.21277 30.9024 4.70453 31.8306 5.68924C32.773 6.67277 33.2448 7.99513 33.2448 9.65866C33.2448 11.321 32.7659 12.6445 31.8095 13.6281C30.8683 14.6128 29.6906 15.1045 28.2765 15.1045C26.8353 15.1045 25.72 14.5845 24.9306 13.5457V14.8128H22.3118ZM25.5742 11.8198C26.1295 12.374 26.8283 12.6516 27.6742 12.6516C28.5189 12.6516 29.2118 12.374 29.753 11.8198C30.3059 11.2528 30.5836 10.5316 30.5836 9.65866C30.5836 8.78572 30.3071 8.0716 29.753 7.51748C29.2118 6.94924 28.5189 6.66571 27.6742 6.66571C26.8283 6.66571 26.1295 6.94924 25.5742 7.51748C25.0342 8.0716 24.7636 8.78572 24.7636 9.65866C24.7636 10.5316 25.033 11.2516 25.5742 11.8198ZM44.5307 10.2822H36.5906C36.6742 11.0716 36.9718 11.7022 37.4848 12.174C37.9977 12.6304 38.6424 12.8598 39.4177 12.8598C40.693 12.8598 41.6412 12.2293 42.2648 10.9681L44.2189 12.0904C43.2495 14.0998 41.6354 15.1045 39.3765 15.1045C37.9071 15.1045 36.653 14.5987 35.6142 13.5869C34.5895 12.5622 34.0765 11.2528 34.0765 9.65866C34.0765 8.06572 34.5953 6.76218 35.6353 5.75159C36.6883 4.72571 37.9765 4.21277 39.5012 4.21277C40.9695 4.21277 42.1754 4.69865 43.1177 5.66806C44.0589 6.63748 44.5307 7.8716 44.5307 9.36807V10.2822ZM39.4177 6.20807C38.7389 6.20807 38.1495 6.40924 37.6506 6.8116C37.1513 7.21502 36.7828 7.75751 36.5918 8.37042H42.1201C41.9954 7.6916 41.6965 7.16454 41.2259 6.79042C40.7554 6.40218 40.1518 6.20807 39.4177 6.20807ZM52.3707 4.33747L51.9554 6.8116C51.6826 6.71031 51.3933 6.66084 51.1024 6.66571C50.326 6.66571 49.7177 6.94924 49.2742 7.51748C48.8307 8.08571 48.6083 8.81983 48.6083 9.72101V14.8128H45.9895V4.50571H48.6083V6.14689C49.246 4.85865 50.2024 4.21394 51.4765 4.21394C51.7954 4.21394 52.093 4.25512 52.3707 4.33747ZM55.3895 10.8645C55.154 10.6353 54.968 10.3603 54.8429 10.0563C54.7179 9.7524 54.6564 9.42607 54.6624 9.09748C54.6624 8.40454 54.9048 7.81513 55.3895 7.33042C55.6187 7.09491 55.8938 6.90889 56.1977 6.78384C56.5016 6.65879 56.828 6.59737 57.1566 6.60336C57.8495 6.60336 58.4389 6.84571 58.9236 7.33042C59.4083 7.8163 59.6507 8.40454 59.6507 9.09748C59.6507 9.79042 59.4083 10.3798 58.9236 10.8645C58.6944 11.1 58.4193 11.2861 58.1154 11.4111C57.8115 11.5362 57.4851 11.5976 57.1566 11.5916C56.4636 11.5916 55.8742 11.3492 55.3895 10.8645ZM63.1436 14.8128V0.264526H73.4319V2.7163H65.8872V6.47865H72.8083V8.9316H65.8872V14.814H63.1436V14.8128ZM74.6942 10.9057V4.50453H77.3131V10.3034C77.3131 11.8681 78.0119 12.6516 79.4119 12.6516C80.146 12.6516 80.7284 12.3951 81.1578 11.8822C81.5872 11.3563 81.8025 10.6704 81.8025 9.82454V4.50571H84.4213V14.814H81.8025V13.1928C81.1225 14.4681 80.0284 15.1057 78.5178 15.1057C77.3954 15.1057 76.4742 14.7387 75.7531 14.0034C75.0472 13.2693 74.6942 12.2363 74.6942 10.9057ZM96.0366 7.78807V14.8128H93.4178V8.87042C93.4178 7.40101 92.7178 6.66689 91.319 6.66689C90.6119 6.66689 90.0366 6.93748 89.5931 7.47748C89.1495 8.00454 88.9284 8.70336 88.9284 9.57631V14.814H86.3095V4.50571H88.9284V6.16807C89.7731 4.86571 90.9378 4.21512 92.4201 4.21512C93.5284 4.21512 94.4084 4.53983 95.0601 5.19159C95.7107 5.84218 96.0366 6.70807 96.0366 7.78807ZM108.235 0.264526V14.8116H105.617V13.3575C105.311 13.8834 104.883 14.3057 104.328 14.6245C103.773 14.9434 103.122 15.1034 102.374 15.1034C100.919 15.1034 99.7072 14.6116 98.7366 13.6269C97.7813 12.6434 97.3025 11.321 97.3025 9.65748C97.3025 8.02219 97.8084 6.70571 98.8201 5.70806C99.8449 4.71042 101.031 4.21159 102.373 4.21159C103.912 4.21159 104.993 4.73159 105.617 5.77042V0.264526H108.235ZM100.794 11.8198C101.348 12.374 102.041 12.6516 102.873 12.6516C103.705 12.6516 104.398 12.374 104.952 11.8198C105.505 11.2528 105.783 10.5316 105.783 9.65866C105.783 8.78572 105.506 8.0716 104.952 7.51748C104.397 6.94924 103.705 6.66571 102.873 6.66571C102.041 6.66571 101.348 6.94924 100.794 7.51748C100.241 8.0716 99.9637 8.78572 99.9637 9.65866C99.9637 10.5316 100.24 11.2516 100.794 11.8198Z" fill="#FFF9EB"/>
</g>
<defs>
<clipPath id="clip0_44_669">
<rect width="108.235" height="20" fill="white"/>
</clipPath>
</defs>
</svg>
