<svg width="119" height="20" viewBox="0 0 119 20" fill="none" xmlns="http://www.w3.org/2000/svg">
<g clip-path="url(#clip0_44_671)">
<mask id="mask0_44_671" style="mask-type:luminance" maskUnits="userSpaceOnUse" x="0" y="0" width="119" height="20">
<path d="M0 0.221558H118.806V19.9347H0V0.221558Z" fill="white"/>
</mask>
<g mask="url(#mask0_44_671)">
<path d="M27.8245 6.82732C28.4156 6.82732 28.961 6.9724 29.4634 7.26673C29.9577 7.55263 30.3684 7.96321 30.6544 8.45747C30.9463 8.95777 31.0935 9.50314 31.0935 10.0963C31.0935 10.4515 31.0392 10.796 30.9305 11.1261C30.8262 11.4504 30.6687 11.7551 30.4642 12.0276C30.2635 12.2939 30.0264 12.5308 29.7601 12.7315C29.4877 12.9358 29.1833 13.0934 28.8592 13.1978C28.5259 13.3065 28.1775 13.3615 27.8269 13.3607H26.446V12.2312H27.8269C28.0577 12.2312 28.2819 12.1948 28.4992 12.1246C28.7116 12.0565 28.9107 11.9524 29.0878 11.8169C29.2615 11.684 29.4167 11.5287 29.5496 11.3551C29.6848 11.1777 29.7889 10.9787 29.8574 10.7664C29.9291 10.5496 29.9651 10.3226 29.9639 10.0942C29.9639 9.50314 29.7556 8.99866 29.3392 8.58195C28.9225 8.16523 28.4177 7.95717 27.8269 7.95717H26.446V6.82703H27.8269L27.8245 6.82732ZM37.663 7.95717H33.0607V6.82703H37.663V7.95717ZM36.8887 10.6646H33.063V9.52553H36.8887V10.6643V10.6646ZM37.663 13.3607H33.0607V12.2312H37.663V13.3607ZM40.7597 12.2312H44.2326V13.3607H39.6302V6.82703H40.7597V12.2312ZM48.8893 6.82732C49.4188 6.82732 49.8693 7.013 50.243 7.38643C50.6164 7.76016 50.8021 8.21061 50.8021 8.74045C50.8021 9.27001 50.6164 9.72045 50.243 10.0942C49.8693 10.4673 49.4188 10.6533 48.8893 10.6533H47.3317V13.3607H46.2021V9.52344H48.8893C49.1066 9.52344 49.292 9.44672 49.4439 9.29508C49.5955 9.14314 49.6723 8.95777 49.6723 8.74045C49.6723 8.52284 49.5955 8.33747 49.4439 8.18583C49.3719 8.11195 49.2856 8.05356 49.1902 8.01424C49.0948 7.97492 48.9924 7.9555 48.8893 7.95717H46.2021V6.82703L48.8893 6.82732ZM56.6358 6.82732H57.7654V13.3607H56.6358V10.6646H53.9012V13.3607H52.7717V6.82703H53.9012V9.52344H56.6358V6.82732ZM60.8645 13.3607H59.7349V6.82703H60.8645V13.3607ZM71.4206 6.82732H72.625L70.2457 13.3607H69.0415L66.6621 6.82732H67.8666L69.6391 11.7079L71.423 6.82732H71.4206ZM79.1853 7.95717H74.583V6.82703H79.1853V7.95717ZM78.4113 10.6646H74.5853V9.52553H78.4113V10.6643V10.6646ZM79.1853 13.3607H74.583V12.2312H79.1853V13.3607ZM84.8334 6.82732H85.9632V13.3607H84.8334L82.2844 9.05717V13.3607H81.1549V6.82703H82.2844L84.8334 11.1396V6.82732ZM87.9214 6.82732H92.5235V7.95717H90.7874V13.3607H89.6575V7.95717H87.9214V6.82732ZM97.9659 6.82732H99.0954V11.0563C99.0954 11.6969 98.8713 12.2425 98.4229 12.6885C97.9748 13.1366 97.4337 13.3607 96.7999 13.3607C96.1659 13.3607 95.6226 13.1369 95.1722 12.6882C94.7217 12.2401 94.4954 11.6969 94.4954 11.0563V6.82703H95.625V11.056C95.625 11.3796 95.7405 11.656 95.9713 11.8867C96.2023 12.1175 96.4784 12.233 96.802 12.233C97.1259 12.233 97.3999 12.1175 97.6286 11.8867C97.7382 11.7783 97.8248 11.6488 97.8832 11.506C97.9415 11.3633 97.9703 11.2102 97.968 11.056V6.82703L97.9659 6.82732ZM105.665 8.74045C105.668 9.09713 105.567 9.44694 105.375 9.74762C105.189 10.0468 104.925 10.2889 104.61 10.4473L105.665 13.3584H104.461L103.48 10.6622H101.063V9.52344H103.75C103.967 9.52344 104.153 9.44672 104.304 9.29508C104.378 9.22384 104.436 9.13827 104.476 9.04366C104.515 8.94905 104.534 8.84738 104.533 8.74493C104.534 8.64184 104.515 8.53956 104.475 8.44424C104.436 8.34893 104.378 8.26255 104.304 8.19031C104.233 8.11497 104.147 8.05531 104.052 8.01517C103.956 7.97502 103.853 7.95527 103.75 7.95717H101.063V6.82703H103.75C104.279 6.82703 104.73 7.0127 105.103 7.38613C105.477 7.75986 105.663 8.21031 105.663 8.74016H105.665V8.74045ZM112.237 7.95717H107.634V6.82703H112.237V7.95717ZM111.462 10.6646H107.637V9.52553H111.462V10.6643V10.6646ZM112.237 13.3607H107.634V12.2312H112.237V13.3607ZM116.893 9.52583C117.423 9.52583 117.874 9.71389 118.247 10.0894C118.62 10.4655 118.806 10.9181 118.806 11.4476C118.806 11.9775 118.618 12.4279 118.247 12.8016C117.874 13.1751 117.423 13.3607 116.893 13.3607H114.206V12.2312H116.893C117.111 12.2312 117.296 12.1542 117.448 12.0025C117.6 11.8509 117.677 11.6652 117.677 11.4479C117.677 11.2306 117.6 11.0449 117.448 10.8933C117.376 10.8194 117.29 10.761 117.194 10.7217C117.099 10.6824 116.996 10.6629 116.893 10.6646H116.119C115.589 10.6646 115.139 10.4766 114.765 10.0987C114.392 9.72254 114.206 9.27001 114.206 8.74045C114.206 8.21061 114.392 7.76016 114.765 7.38643C115.139 7.01329 115.589 6.82732 116.119 6.82732H118.423V7.95717H116.119C115.906 7.95717 115.723 8.03389 115.569 8.19001C115.413 8.34643 115.336 8.52971 115.336 8.74493C115.336 8.95986 115.413 9.14314 115.569 9.29508C115.725 9.44672 115.909 9.52344 116.119 9.52344H116.893V9.52583Z" fill="#FFF9EB"/>
<path d="M12.8336 2.22514C12.598 2.331 12.3703 2.4535 12.1521 2.5917C12.0458 2.65528 11.9461 2.72096 11.8488 2.78663C11.6972 2.48991 11.0407 1.3535 9.9291 1.3535H9.92223C9.60074 1.37379 8.13627 1.57081 7.70373 3.51767L7.69925 3.53349C7.64915 3.7462 7.60683 3.96067 7.57239 4.17647C7.46612 4.79886 7.34612 5.50513 6.87746 6.17528C6.25269 7.08095 5.28612 7.48154 4.67478 7.65139C4.58918 7.52397 4.50161 7.39789 4.4121 7.27318C4.28553 7.09438 4.16314 6.92244 4.06135 6.75259L4.05239 6.73677C4.0318 6.70513 4.01359 6.67348 3.99359 6.64154C4.07269 6.6305 5.3109 6.45169 5.94493 5.5302C6.2709 5.06602 6.35896 4.54334 6.45418 3.98842C6.49478 3.75319 6.53567 3.50871 6.59687 3.26633C7.07896 1.12275 8.66373 0.287229 9.87447 0.221558H9.9291C11.6246 0.221558 12.5551 1.69976 12.8336 2.22514ZM3.14464 8.17438C3.47061 8.63408 3.77598 9.06631 3.87598 9.62303C4.07956 10.7233 3.33001 11.7239 3.28046 11.7896C3.31628 11.7985 3.35061 11.8075 3.38911 11.8165L3.40493 11.8212C3.59956 11.8711 3.80314 11.9048 4.01837 11.9412C4.16762 11.966 4.31926 11.9932 4.47568 12.0227C4.78792 11.4726 5.18881 10.506 4.98941 9.42392C4.84911 8.62034 4.43478 8.03617 4.06822 7.52005C3.93951 7.34337 3.81714 7.16216 3.70135 6.97677L3.6924 6.96304C2.62165 5.28125 3.51807 4.10633 3.7309 3.86394C4.51627 3.07409 5.78851 3.41349 6.10552 3.51528C6.12821 3.40006 6.15329 3.28245 6.18254 3.16215C6.24373 2.8929 6.31836 2.64842 6.40433 2.41976C5.83388 2.24305 4.1112 1.8514 2.9112 3.07857L2.89538 3.09648C2.08494 3.99976 1.55509 5.70901 2.73031 7.56303C2.85926 7.77796 3.00195 7.97975 3.13986 8.17438H3.14464ZM5.9515 13.055C5.28374 12.5863 4.57747 12.4663 3.95269 12.36C3.72643 12.3215 3.5112 12.2854 3.30971 12.2332L3.29389 12.2287C1.34703 11.7965 1.15001 10.3317 1.12971 10.0102C1.12524 8.89408 2.26404 8.23766 2.56255 8.08363C2.49688 7.98632 2.4312 7.88453 2.36792 7.78035C2.22981 7.56222 2.10731 7.33458 2.00135 7.09915C1.47389 7.37975 -0.0180437 8.32154 0.000165215 10.0374V10.06C0.0658367 11.2711 0.901059 12.8559 3.04255 13.3359C3.28493 13.3968 3.52911 13.4373 3.76493 13.4782C4.31926 13.5735 4.84254 13.6618 5.30642 13.9878C6.22791 14.6215 6.40672 15.8576 6.41806 15.9391C6.4497 15.9212 6.48134 15.903 6.51299 15.8824L6.52881 15.8735C6.70658 15.7629 6.88023 15.6458 7.0494 15.5224C7.17179 15.4364 7.29866 15.346 7.43 15.2597C7.25985 14.6508 6.86164 13.6821 5.95388 13.0574L5.9515 13.055ZM9.20014 14.9433C8.39656 15.0836 7.81239 15.4979 7.29627 15.8648C7.10821 15.9982 6.93209 16.1227 6.75299 16.2314L6.73925 16.2403C5.05747 17.3111 3.88254 16.4147 3.64016 16.2018C2.84792 15.4164 3.18971 14.1442 3.2915 13.8272C3.17628 13.8045 3.05867 13.7794 2.93837 13.7502C2.68612 13.6934 2.43807 13.6192 2.19598 13.5284C2.01927 14.0988 1.62762 15.8215 2.85479 17.0215L2.8727 17.0373C3.39807 17.5105 4.19717 17.8863 5.14135 17.8863C5.81806 17.8863 6.56731 17.6917 7.34134 17.2003C7.55657 17.0714 7.75806 16.9287 7.95268 16.7905C8.41238 16.4645 8.84462 16.1588 9.40164 16.0591C10.5019 15.8556 11.5025 16.6048 11.5679 16.6547C11.5769 16.6185 11.5861 16.5845 11.5951 16.546L11.5998 16.5302C11.6494 16.3332 11.6834 16.1272 11.7222 15.9099C11.747 15.7627 11.7718 15.6135 11.8034 15.4594C11.2533 15.1472 10.287 14.7463 9.20462 14.9457L9.20014 14.9433ZM15.6565 13.4221L15.6476 13.4063C15.5431 13.2341 15.4231 13.0645 15.2965 12.8854C15.2106 12.763 15.1222 12.6365 15.0339 12.5075C14.4249 12.6774 13.456 13.0756 12.8312 13.9833C12.3625 14.6514 12.2428 15.3576 12.1363 15.9824C12.0977 16.2087 12.0616 16.4239 12.0094 16.6254L12.0049 16.6412C11.5727 18.5881 10.1079 18.7848 9.78641 18.8054C8.67268 18.8123 8.01179 17.669 7.85985 17.3726C7.76254 17.4382 7.66074 17.5039 7.55657 17.5669C7.3303 17.7096 7.10373 17.8296 6.87299 17.9338C7.1491 18.4567 8.07955 19.9397 9.77746 19.9397H9.83179C11.0428 19.8741 12.6276 19.0382 13.1073 16.897C13.1685 16.6547 13.2094 16.4105 13.25 16.1747C13.3452 15.6203 13.4333 15.097 13.7592 14.6332C14.3933 13.7117 15.6315 13.5329 15.7109 13.5215C15.6921 13.4894 15.6725 13.4577 15.6521 13.4266L15.6565 13.4221ZM16.9762 12.5911C16.8473 12.3762 16.7046 12.1747 16.5664 11.98C16.2404 11.5203 15.9351 11.0881 15.8351 10.5311C15.6315 9.43109 16.381 8.43049 16.4306 8.36482C16.3945 8.35587 16.3604 8.34691 16.3219 8.33766L16.3061 8.33318C16.1115 8.28333 15.9079 8.2493 15.6927 8.21318C15.5434 8.18811 15.3915 8.16094 15.2354 8.13169C14.9231 8.68184 14.5222 9.6481 14.7216 10.7305C14.8619 11.5341 15.2763 12.1179 15.6428 12.6344C15.7765 12.8221 15.901 12.9985 16.0097 13.1776L16.0186 13.1911C17.0894 14.8732 16.193 16.0478 15.9801 16.2902C15.1948 17.0827 13.9225 16.7409 13.6055 16.6388C13.5828 16.7544 13.5577 16.872 13.5285 16.992C13.4717 17.2443 13.3976 17.4925 13.3067 17.7347C13.5625 17.8138 14.0491 17.9361 14.6195 17.9361C15.3168 17.9361 16.1386 17.7505 16.7995 17.0758L16.8154 17.0579C17.6258 16.1544 18.1556 14.4454 16.9807 12.5911H16.9762ZM19.7109 10.0944C19.6476 8.88303 18.8124 7.29856 16.6685 6.81856C16.4261 6.75736 16.1819 6.71677 15.9461 6.67587C15.3915 6.58095 14.8685 6.49259 14.4046 6.16662C13.4831 5.53289 13.3043 4.29677 13.293 4.21528C13.2613 4.23319 13.2297 4.2514 13.198 4.272L13.1843 4.28095C13.01 4.38513 12.8401 4.50722 12.6589 4.63409C12.5392 4.72006 12.4124 4.80841 12.2834 4.89438C12.4533 5.50334 12.8518 6.47229 13.7592 7.09706C14.4273 7.56572 15.1336 7.68572 15.7583 7.79199C15.9846 7.8305 16.1998 7.86661 16.4013 7.91885L16.4171 7.92333C18.364 8.35557 18.561 9.82034 18.5813 10.1418C18.5858 11.2579 17.447 11.9144 17.1485 12.0684C17.2142 12.1657 17.2798 12.2675 17.3428 12.3717C17.4903 12.6048 17.61 12.8314 17.71 13.0532C18.2395 12.7747 19.7312 11.8329 19.713 10.1171V10.0944H19.7109ZM16.0706 3.95468C16.8631 4.74006 16.5213 6.01229 16.4192 6.3293C16.5348 6.35199 16.6527 6.37707 16.7724 6.40632C17.0419 6.46751 17.2864 6.54214 17.5151 6.62811C17.6915 6.05766 18.0831 4.33498 16.8562 3.13498L16.8383 3.11916C15.9351 2.30663 14.2258 1.77887 12.3718 2.95409C12.1569 3.08304 11.9551 3.22573 11.7604 3.36364C11.3007 3.68961 10.8685 3.99528 10.3118 4.09498C9.21388 4.29856 8.21089 3.54931 8.14522 3.49946L8.11806 3.60812L8.11358 3.62394C8.06373 3.82095 8.03 4.02692 7.99119 4.24424C7.96642 4.3914 7.94134 4.54095 7.9097 4.69707C8.45985 5.00961 9.4288 5.4102 10.5085 5.2111C11.3121 5.0708 11.8966 4.65647 12.4124 4.28961C12.6004 4.15618 12.7769 4.0317 12.9557 3.92304L12.9694 3.91409C14.6512 2.84304 15.8261 3.73946 16.0685 3.9523L16.0709 3.95468H16.0706Z" fill="#FFF9EB"/>
</g>
</g>
<defs>
<clipPath id="clip0_44_671">
<rect width="118.806" height="20" fill="white"/>
</clipPath>
</defs>
</svg>
