<svg width="174" height="174" viewBox="0 0 174 174" fill="none" xmlns="http://www.w3.org/2000/svg">
<mask id="path-1-outside-1_23_190" maskUnits="userSpaceOnUse" x="-0.5" y="-0.5" width="175" height="175" fill="black">
<rect fill="white" x="-0.5" y="-0.5" width="175" height="175"/>
<path d="M76.5605 0.5C107.383 0.5 131.245 8.01462 148.147 23.043C165.049 37.8965 173.501 59.2154 173.501 87C173.501 114.61 165.05 135.93 148.147 150.958C131.245 165.986 107.383 173.501 76.5605 173.501H38.2051C17.3813 173.501 0.500256 156.62 0.5 135.796V38.2051C0.500134 17.3812 17.3812 0.500109 38.2051 0.5H76.5605ZM78.8457 55.375L67.582 28.0566L66.918 26.5664L23.2412 138.117L23.2402 139.633L113.147 139.683V139.669L136.355 139.683V138.564L90.79 28.0566L90.126 26.5664L78.8457 55.375ZM68.7764 81.0908L47.1641 136.292H26.7227L67.582 79.501L68.7764 81.0908ZM110.272 136.292H49.9307L79.4395 95.2754L110.272 136.292ZM133.48 136.292H112.211L89.5205 81.2637L90.79 79.501L133.48 136.292Z"/>
</mask>
<path d="M76.5605 0.5C107.383 0.5 131.245 8.01462 148.147 23.043C165.049 37.8965 173.501 59.2154 173.501 87C173.501 114.61 165.05 135.93 148.147 150.958C131.245 165.986 107.383 173.501 76.5605 173.501H38.2051C17.3813 173.501 0.500256 156.62 0.5 135.796V38.2051C0.500134 17.3812 17.3812 0.500109 38.2051 0.5H76.5605ZM78.8457 55.375L67.582 28.0566L66.918 26.5664L23.2412 138.117L23.2402 139.633L113.147 139.683V139.669L136.355 139.683V138.564L90.79 28.0566L90.126 26.5664L78.8457 55.375ZM68.7764 81.0908L47.1641 136.292H26.7227L67.582 79.501L68.7764 81.0908ZM110.272 136.292H49.9307L79.4395 95.2754L110.272 136.292ZM133.48 136.292H112.211L89.5205 81.2637L90.79 79.501L133.48 136.292Z" fill="#FDBA0D"/>
<path d="M148.147 23.043L147.815 23.4166L147.817 23.4185L148.147 23.043ZM173.501 87H174.001V87H173.501ZM148.147 150.958L148.48 151.332V151.332L148.147 150.958ZM38.2051 173.501L38.2051 174.001H38.2051V173.501ZM0.5 135.796H0V135.796H0.5ZM0.5 38.2051L0 38.2051V38.2051H0.5ZM38.2051 0.5V0H38.2051L38.2051 0.5ZM78.8457 55.375L78.3835 55.5656L78.8577 56.7158L79.3113 55.5573L78.8457 55.375ZM67.582 28.0566L68.0445 27.866L68.0387 27.8531L67.582 28.0566ZM66.918 26.5664L67.3747 26.3629L66.8882 25.2711L66.4524 26.3841L66.918 26.5664ZM23.2412 138.117L22.7756 137.935L22.7413 138.023L22.7412 138.117L23.2412 138.117ZM23.2402 139.633L22.7402 139.632L22.7399 140.133L23.24 140.133L23.2402 139.633ZM113.147 139.683L113.147 140.183L113.647 140.183V139.683H113.147ZM113.147 139.669L113.148 139.169L112.647 139.169V139.669H113.147ZM136.355 139.683L136.355 140.183L136.855 140.183V139.683H136.355ZM136.355 138.564H136.855V138.465L136.818 138.374L136.355 138.564ZM90.79 28.0566L91.2525 27.866L91.2467 27.8531L90.79 28.0566ZM90.126 26.5664L90.5827 26.3629L90.0962 25.2711L89.6604 26.3841L90.126 26.5664ZM68.7764 81.0908L69.242 81.2731L69.3436 81.0135L69.1761 80.7905L68.7764 81.0908ZM47.1641 136.292V136.792H47.5053L47.6297 136.474L47.1641 136.292ZM26.7227 136.292L26.3168 136L25.747 136.792H26.7227V136.292ZM67.582 79.501L67.9818 79.2007L67.5733 78.6569L67.1762 79.209L67.582 79.501ZM110.272 136.292V136.792H111.274L110.672 135.992L110.272 136.292ZM49.9307 136.292L49.5248 136L48.955 136.792H49.9307V136.292ZM79.4395 95.2754L79.8391 94.975L79.4306 94.4315L79.0336 94.9834L79.4395 95.2754ZM133.48 136.292V136.792H134.482L133.88 135.992L133.48 136.292ZM112.211 136.292L111.749 136.483L111.876 136.792H112.211V136.292ZM89.5205 81.2637L89.1148 80.9715L88.9522 81.1972L89.0583 81.4543L89.5205 81.2637ZM90.79 79.501L91.1897 79.2005L90.7814 78.6574L90.3843 79.2088L90.79 79.501ZM76.5605 0.5V1C107.305 1 131.033 8.49517 147.815 23.4166L148.147 23.043L148.48 22.6693C131.457 7.53407 107.46 0 76.5605 0V0.5ZM148.147 23.043L147.817 23.4185C164.587 38.1554 173.001 59.3227 173.001 87H173.501H174.001C174.001 59.1082 165.512 37.6376 148.478 22.6674L148.147 23.043ZM173.501 87H173.001C173.001 114.501 164.588 135.671 147.815 150.584L148.147 150.958L148.48 151.332C165.512 136.188 174.001 114.719 174.001 87H173.501ZM148.147 150.958L147.815 150.584C131.033 165.506 107.305 173.001 76.5605 173.001V173.501V174.001C107.46 174.001 131.457 166.467 148.48 151.332L148.147 150.958ZM76.5605 173.501V173.001H38.2051V173.501V174.001H76.5605V173.501ZM38.2051 173.501L38.2051 173.001C17.6574 173.001 1.00025 156.344 1 135.796H0.5H0C0.000259042 156.896 17.1051 174.001 38.2051 174.001L38.2051 173.501ZM0.5 135.796H1V38.2051H0.5H0V135.796H0.5ZM0.5 38.2051L1 38.2051C1.00013 17.6574 17.6573 1.00011 38.2051 1L38.2051 0.5L38.2051 0C17.1051 0.000110716 0.000135779 17.1051 0 38.2051L0.5 38.2051ZM38.2051 0.5V1H76.5605V0.5V0H38.2051V0.5ZM78.8457 55.375L79.308 55.1844L68.0443 27.866L67.582 28.0566L67.1198 28.2472L78.3835 55.5656L78.8457 55.375ZM67.582 28.0566L68.0387 27.8531L67.3747 26.3629L66.918 26.5664L66.4613 26.7699L67.1253 28.2602L67.582 28.0566ZM66.918 26.5664L66.4524 26.3841L22.7756 137.935L23.2412 138.117L23.7068 138.299L67.3836 26.7487L66.918 26.5664ZM23.2412 138.117L22.7412 138.117L22.7402 139.632L23.2402 139.633L23.7402 139.633L23.7412 138.118L23.2412 138.117ZM23.2402 139.633L23.24 140.133L113.147 140.183L113.147 139.683L113.148 139.183L23.2405 139.133L23.2402 139.633ZM113.147 139.683H113.647V139.669H113.147H112.647V139.683H113.147ZM113.147 139.669L113.147 140.169L136.355 140.183L136.355 139.683L136.356 139.183L113.148 139.169L113.147 139.669ZM136.355 139.683H136.855V138.564H136.355H135.855V139.683H136.355ZM136.355 138.564L136.818 138.374L91.2523 27.866L90.79 28.0566L90.3278 28.2472L135.893 138.755L136.355 138.564ZM90.79 28.0566L91.2467 27.8531L90.5827 26.3629L90.126 26.5664L89.6693 26.7699L90.3333 28.2602L90.79 28.0566ZM90.126 26.5664L89.6604 26.3841L78.3801 55.1927L78.8457 55.375L79.3113 55.5573L90.5916 26.7487L90.126 26.5664ZM68.7764 81.0908L68.3108 80.9085L46.6985 136.11L47.1641 136.292L47.6297 136.474L69.242 81.2731L68.7764 81.0908ZM47.1641 136.292V135.792H26.7227V136.292V136.792H47.1641V136.292ZM26.7227 136.292L27.1285 136.584L67.9879 79.793L67.582 79.501L67.1762 79.209L26.3168 136L26.7227 136.292ZM67.582 79.501L67.1823 79.8013L68.3766 81.3911L68.7764 81.0908L69.1761 80.7905L67.9818 79.2007L67.582 79.501ZM110.272 136.292V135.792H49.9307V136.292V136.792H110.272V136.292ZM49.9307 136.292L50.3365 136.584L79.8453 95.5674L79.4395 95.2754L79.0336 94.9834L49.5248 136L49.9307 136.292ZM79.4395 95.2754L79.0398 95.5758L109.873 136.592L110.272 136.292L110.672 135.992L79.8391 94.975L79.4395 95.2754ZM133.48 136.292V135.792H112.211V136.292V136.792H133.48V136.292ZM112.211 136.292L112.673 136.101L89.9827 81.0731L89.5205 81.2637L89.0583 81.4543L111.749 136.483L112.211 136.292ZM89.5205 81.2637L89.9262 81.5559L91.1958 79.7932L90.79 79.501L90.3843 79.2088L89.1148 80.9715L89.5205 81.2637ZM90.79 79.501L90.3904 79.8014L133.081 136.592L133.48 136.292L133.88 135.992L91.1897 79.2005L90.79 79.501Z" fill="#FFF5DB" mask="url(#path-1-outside-1_23_190)"/>
</svg>
