<svg width="24" height="24" viewBox="0 0 24 24" fill="none" xmlns="http://www.w3.org/2000/svg">
<path d="M21.4576 2.45514C21.3414 2.3548 21.2 2.28806 21.0487 2.26213C20.8974 2.23619 20.7419 2.25203 20.5989 2.30795L1.59949 9.74327C1.33023 9.84797 1.10226 10.0373 0.949919 10.2828C0.797576 10.5283 0.729099 10.8166 0.754798 11.1043C0.780496 11.3921 0.898979 11.6637 1.09241 11.8783C1.28584 12.0929 1.54375 12.2389 1.8273 12.2942L6.75011 13.2608V18.7498C6.74915 19.0488 6.838 19.3412 7.00515 19.5891C7.17231 19.837 7.41007 20.029 7.68761 20.1401C7.96473 20.2533 8.26949 20.2805 8.56225 20.2181C8.85501 20.1557 9.12224 20.0067 9.32918 19.7905L11.7029 17.3286L15.4689 20.6248C15.7406 20.8658 16.091 20.9992 16.4542 20.9998C16.6133 20.9997 16.7715 20.9747 16.9229 20.9258C17.1704 20.8472 17.3929 20.7053 17.5684 20.514C17.744 20.3227 17.8663 20.0887 17.9232 19.8355L21.7286 3.28108C21.7626 3.13178 21.7554 2.97603 21.7076 2.83053C21.6599 2.68503 21.5735 2.55527 21.4576 2.45514ZM16.4561 19.4998L8.7048 12.703L19.8611 4.70702L16.4561 19.4998Z" fill="#FFF9EB"/>
</svg>
