<svg width="20" height="20" viewBox="0 0 20 20" fill="none" xmlns="http://www.w3.org/2000/svg">
<path d="M9.75213 2.32196e-07C8.06882 -0.000367089 6.41408 0.435083 4.94899 1.26396C3.4839 2.09285 2.25836 3.28692 1.39166 4.72997C0.524969 6.17301 0.0466421 7.81587 0.00324182 9.49862C-0.0401585 11.1814 0.352846 12.8467 1.144 14.3325L0.0799407 17.5247C-0.00819875 17.789 -0.0209899 18.0726 0.0430011 18.3438C0.106992 18.6149 0.245236 18.8629 0.442239 19.0599C0.639241 19.2569 0.887217 19.3951 1.15837 19.4591C1.42953 19.5231 1.71315 19.5103 1.97744 19.4222L5.16963 18.3581C6.47722 19.0536 7.92608 19.4421 9.40622 19.494C10.8864 19.5459 12.3589 19.26 13.712 18.6579C15.0651 18.0557 16.2633 17.1533 17.2156 16.019C18.1678 14.8846 18.8492 13.5483 19.2079 12.1113C19.5666 10.6744 19.5932 9.17456 19.2857 7.72578C18.9782 6.27701 18.3447 4.91732 17.4333 3.74992C16.5219 2.58253 15.3565 1.63811 14.0255 0.988364C12.6946 0.338614 11.2332 0.000607716 9.75213 2.32196e-07ZM12.7521 12H6.75213C6.55322 12 6.36245 11.921 6.2218 11.7803C6.08115 11.6397 6.00213 11.4489 6.00213 11.25C6.00213 11.0511 6.08115 10.8603 6.2218 10.7197C6.36245 10.579 6.55322 10.5 6.75213 10.5H12.7521C12.951 10.5 13.1418 10.579 13.2825 10.7197C13.4231 10.8603 13.5021 11.0511 13.5021 11.25C13.5021 11.4489 13.4231 11.6397 13.2825 11.7803C13.1418 11.921 12.951 12 12.7521 12ZM12.7521 9H6.75213C6.55322 9 6.36245 8.92098 6.2218 8.78033C6.08115 8.63968 6.00213 8.44891 6.00213 8.25C6.00213 8.05109 6.08115 7.86032 6.2218 7.71967C6.36245 7.57902 6.55322 7.5 6.75213 7.5H12.7521C12.951 7.5 13.1418 7.57902 13.2825 7.71967C13.4231 7.86032 13.5021 8.05109 13.5021 8.25C13.5021 8.44891 13.4231 8.63968 13.2825 8.78033C13.1418 8.92098 12.951 9 12.7521 9Z" fill="#0B0B0B"/>
</svg>
